#!OML:ASF X:\für Bonn\!DataBase\2005_08_10_Bjorn_Final\c3d\bjorn.ASF
:FULLY-SPECIFIED
:DEGREES
751
root -0.344822 1.31841 23.882 -470.282 -178.86 368.025
lowerback 23.2187 1.06699 -0.256518
upperback 7.92024 -0.160261 -4.03282
thorax -4.2618 -0.654287 -4.12998
lowerneck -13.5703 -5.90726 -1.31881
upperneck -2.98188 -8.5275 6.94135
head 1.76068 -4.3285 1.95486
rclavicle 3.33958e-014 -1.12313e-014
rhumerus -214.021 -156.26 123.836
rradius 0.289904
rwrist 50.4573
rhand -10.44 0.818689
rfingers 7.12502
rthumb 15.5599 -28.5754
lclavicle 3.33958e-014 -1.12313e-014
lhumerus -384.734 15.4542 -312.674
lradius 10.4689
lwrist -76.6845
lhand -7.31368 -8.333
lfingers 7.12502
lthumb 18.5691 20.8007
rfemur -25.0387 -16.2937 -11.7926
rtibia 109.253
rfoot 36.2114 12.7908
rtoes -1.6535
lfemur -36.5084 -4.41044 0.0643798
ltibia 119.226
lfoot 30.3633 -9.72606
ltoes 4.84977
752
root -0.345088 1.31805 23.8821 -470.301 -178.885 368.044
lowerback 23.2369 1.05897 -0.219598
upperback 7.92085 -0.16287 -4.02965
thorax -4.27014 -0.655401 -4.14735
lowerneck -13.5046 -5.91224 -1.33305
upperneck -3.03695 -8.53145 6.95775
head 1.73257 -4.33284 1.96503
rclavicle 1.27222e-014 -3.4191e-014
rhumerus -214.096 -156.135 123.931
rradius 0.320415
rwrist 50.6423
rhand -10.4636 0.783961
rfingers 7.12502
rthumb 15.5372 -28.6118
lclavicle 1.27222e-014 -3.4191e-014
lhumerus -384.747 15.9039 -312.879
lradius 10.4447
lwrist -77.0584
lhand -7.40641 -8.32893
lfingers 7.12502
lthumb 18.4799 20.8133
rfemur -25.0039 -16.2927 -11.7712
rtibia 109.246
rfoot 36.2076 12.7753
rtoes -1.64665
lfemur -36.5097 -4.44722 0.0839889
ltibia 119.233
lfoot 30.3688 -9.71901
ltoes 4.87549
753
root -0.345084 1.31799 23.8818 -470.301 -178.885 368.044
lowerback 23.2139 1.05773 -0.258623
upperback 7.9396 -0.169531 -3.99483
thorax -4.23903 -0.659066 -4.08468
lowerneck -13.5234 -5.90214 -1.35868
upperneck -3.04897 -8.51072 6.93354
head 1.73091 -4.32205 1.96261
rclavicle 9.54166e-015 4.09496e-014
rhumerus -214.059 -156.052 124.018
rradius 0.329021
rwrist 50.7569
rhand -10.451 0.750658
rfingers 7.12502
rthumb 15.5493 -28.6442
lclavicle 9.54166e-015 4.09496e-014
lhumerus -384.824 16.6364 -313.123
lradius 10.4487
lwrist -77.6282
lhand -7.45966 -8.43554
lfingers 7.12502
lthumb 18.4287 20.7115
rfemur -24.9989 -16.2995 -11.7726
rtibia 109.237
rfoot 36.2109 12.777
rtoes -1.64937
lfemur -36.514 -4.43216 0.0921094
ltibia 119.235
lfoot 30.3719 -9.73022
ltoes 4.87032
754
root -0.344658 1.3185 23.8824 -470.33 -178.9 368.05
lowerback 23.2359 1.05619 -0.250016
upperback 7.94626 -0.170946 -3.98766
thorax -4.24284 -0.660495 -4.08165
lowerneck -13.4708 -5.90922 -1.37158
upperneck -3.10151 -8.51922 6.96004
head 1.7067 -4.32847 1.97513
rclavicle 2.22639e-014 -4.67144e-014
rhumerus -214.082 -155.934 124.096
rradius 0.299977
rwrist 50.9513
rhand -10.5025 0.713544
rfingers 7.12502
rthumb 15.4997 -28.6852
lclavicle 2.22639e-014 -4.67144e-014
lhumerus -384.85 17.1971 -313.361
lradius 10.3893
lwrist -78.1353
lhand -7.59142 -8.46909
lfingers 7.12502
lthumb 18.3019 20.6899
rfemur -24.9549 -16.2879 -11.7535
rtibia 109.229
rfoot 36.1808 12.8174
rtoes -1.79756
lfemur -36.4793 -4.43788 0.110069
ltibia 119.226
lfoot 30.3699 -9.74316
ltoes 4.8636
755
root -0.344439 1.31802 23.8822 -470.334 -178.904 368.06
lowerback 23.2385 1.05689 -0.244017
upperback 7.94835 -0.168673 -3.98424
thorax -4.24162 -0.659448 -4.082
lowerneck -13.4499 -5.91599 -1.38737
upperneck -3.13058 -8.52585 6.96793
head 1.69487 -4.33276 1.981
rclavicle 2.38542e-014 -1.27222e-014
rhumerus -214.122 -155.806 124.182
rradius 0.318126
rwrist 51.0955
rhand -10.4837 0.705661
rfingers 7.12502
rthumb 15.5178 -28.6916
lclavicle 2.38542e-014 -1.27222e-014
lhumerus -384.864 17.7357 -313.572
lradius 10.3384
lwrist -78.6318
lhand -7.66887 -8.52589
lfingers 7.12502
lthumb 18.2274 20.6401
rfemur -24.9469 -16.2955 -11.7549
rtibia 109.227
rfoot 36.1835 12.8161
rtoes -1.79705
lfemur -36.4813 -4.46232 0.114988
ltibia 119.221
lfoot 30.3953 -9.68405
ltoes 5.03939
756
root -0.344635 1.3177 23.8823 -470.362 -178.909 368.075
lowerback 23.2618 1.04697 -0.244047
upperback 7.95701 -0.182493 -3.97593
thorax -4.24482 -0.666902 -4.06949
lowerneck -13.4299 -5.91537 -1.43683
upperneck -3.13611 -8.51748 6.99974
head 1.69367 -4.32767 2.00116
rclavicle -3.18055e-015 8.94531e-014
rhumerus -214.142 -155.71 124.262
rradius 0.333375
rwrist 51.3095
rhand -10.4799 0.68112
rfingers 7.12502
rthumb 15.5215 -28.7159
lclavicle -3.18055e-015 8.94531e-014
lhumerus -384.908 18.2049 -313.758
lradius 10.2958
lwrist -79.0272
lhand -7.76033 -8.54077
lfingers 7.12502
lthumb 18.1394 20.6334
rfemur -24.9033 -16.2947 -11.7652
rtibia 109.219
rfoot 36.1818 12.8169
rtoes -1.7971
lfemur -36.4565 -4.48628 0.110216
ltibia 119.214
lfoot 30.3944 -9.69202
ltoes 5.01411
757
root -0.344547 1.31791 23.8827 -470.373 -178.908 368.092
lowerback 23.264 1.0419 -0.250225
upperback 7.96323 -0.190838 -3.9761
thorax -4.23976 -0.671288 -4.06391
lowerneck -13.394 -5.91781 -1.42802
upperneck -3.19383 -8.52306 7.01059
head 1.66849 -4.33323 2.00461
rclavicle -2.8625e-014 6.85807e-015
rhumerus -214.151 -155.598 124.335
rradius 0.317096
rwrist 51.4711
rhand -10.4688 0.636267
rfingers 7.12502
rthumb 15.5322 -28.7599
lclavicle -2.8625e-014 6.85807e-015
lhumerus -384.954 18.8188 -314.006
lradius 10.2549
lwrist -79.6541
lhand -7.83135 -8.65995
lfingers 7.12502
lthumb 18.0711 20.5206
rfemur -24.8768 -16.2964 -11.7752
rtibia 109.211
rfoot 36.1803 12.8131
rtoes -1.7917
lfemur -36.4469 -4.51626 0.0933781
ltibia 119.209
lfoot 30.3935 -9.68097
ltoes 5.01387
758
root -0.344371 1.31787 23.8825 -470.385 -178.922 368.078
lowerback 23.2728 1.04565 -0.234104
upperback 7.96401 -0.182885 -3.97098
thorax -4.24266 -0.667624 -4.06981
lowerneck -13.382 -5.92495 -1.41802
upperneck -3.19577 -8.53347 6.99795
head 1.6649 -4.33894 1.99842
rclavicle -6.20208e-014 5.02925e-014
rhumerus -214.188 -155.476 124.413
rradius 0.312259
rwrist 51.6478
rhand -10.4851 0.632403
rfingers 7.12502
rthumb 15.5165 -28.765
lclavicle -6.20208e-014 5.02925e-014
lhumerus -384.969 19.1761 -314.155
lradius 10.1953
lwrist -79.9632
lhand -7.91213 -8.70631
lfingers 7.12502
lthumb 17.9934 20.4814
rfemur -24.8727 -16.2802 -11.7515
rtibia 109.21
rfoot 36.1802 12.8057
rtoes -1.70608
lfemur -36.4343 -4.48938 0.127425
ltibia 119.21
lfoot 30.3963 -9.702
ltoes 5.00878
759
root -0.343766 1.31705 23.8819 -470.406 -178.915 368.106
lowerback 23.2855 1.04583 -0.250675
upperback 7.97893 -0.187981 -3.9652
thorax -4.23321 -0.671351 -4.05266
lowerneck -13.3628 -5.93106 -1.44784
upperneck -3.24357 -8.53781 7.01794
head 1.64851 -4.34244 2.01105
rclavicle 1.59028e-015 -7.05686e-015
rhumerus -214.224 -155.359 124.515
rradius 0.350426
rwrist 51.8071
rhand -10.4613 0.62199
rfingers 7.12502
rthumb 15.5393 -28.7736
lclavicle 1.59028e-015 -7.05686e-015
lhumerus -384.988 19.8077 -314.38
lradius 10.1131
lwrist -80.6164
lhand -8.01302 -8.8119
lfingers 7.12502
lthumb 17.8963 20.3847
rfemur -24.8321 -16.3029 -11.7839
rtibia 109.201
rfoot 36.1701 12.8132
rtoes -1.76663
lfemur -36.4283 -4.53074 0.102544
ltibia 119.208
lfoot 30.4016 -9.69209
ltoes 5.00466
760
root -0.344327 1.31679 23.881 -470.416 -178.935 368.112
lowerback 23.2909 1.03642 -0.257266
upperback 7.97857 -0.197457 -3.93122
thorax -4.23707 -0.675343 -4.00934
lowerneck -13.3578 -5.93374 -1.52008
upperneck -3.22764 -8.52813 7.03274
head 1.65722 -4.33512 2.02901
rclavicle 1.59028e-014 1.72943e-014
rhumerus -214.231 -155.288 124.618
rradius 0.362558
rwrist 52.0082
rhand -10.4691 0.582485
rfingers 7.12502
rthumb 15.5319 -28.8137
lclavicle 1.59028e-014 1.72943e-014
lhumerus -385.069 20.2872 -314.538
lradius 10.0706
lwrist -81.1219
lhand -8.06686 -8.93142
lfingers 7.12502
lthumb 17.8445 20.2699
rfemur -24.8087 -16.319 -11.7739
rtibia 109.204
rfoot 36.146 12.9081
rtoes -1.97413
lfemur -36.432 -4.52849 0.130361
ltibia 119.214
lfoot 30.4051 -9.70639
ltoes 4.90904
761
root -0.343814 1.31723 23.8817 -470.436 -178.933 368.125
lowerback 23.2872 1.03684 -0.271177
upperback 8.00214 -0.201772 -3.92576
thorax -4.20991 -0.678966 -3.99405
lowerneck -13.3596 -5.94174 -1.56032
upperneck -3.27042 -8.5355 7.07165
head 1.64797 -4.33954 2.04877
rclavicle -5.40694e-014 1.35174e-014
rhumerus -214.204 -155.161 124.686
rradius 0.329665
rwrist 52.1758
rhand -10.4954 0.538809
rfingers 7.12502
rthumb 15.5065 -28.8594
lclavicle -5.40694e-014 1.35174e-014
lhumerus -384.955 20.1165 -314.349
lradius 9.98808
lwrist -80.8694
lhand -8.05813 -8.89236
lfingers 7.12502
lthumb 17.8529 20.3082
rfemur -24.7736 -16.3174 -11.7856
rtibia 109.195
rfoot 36.1428 12.9076
rtoes -1.97365
lfemur -36.4075 -4.55643 0.11454
ltibia 119.206
lfoot 30.4022 -9.69704
ltoes 4.90889
